<svg width="32" height="32" viewBox="0 0 32 32" fill="none" xmlns="http://www.w3.org/2000/svg">
<g id="uil:search-alt">
<path id="Vector" d="M28.0934 22.44L25.3334 19.6133C24.7397 19.049 23.9908 18.6751 23.183 18.5396C22.3752 18.4042 21.5453 18.5135 20.8 18.8533L19.6 17.6533C21.0141 15.7639 21.6599 13.4089 21.4074 11.0624C21.1549 8.71598 20.0229 6.55228 18.2393 5.00692C16.4556 3.46155 14.1527 2.64926 11.7942 2.73356C9.43575 2.81787 7.19676 3.7925 5.52799 5.46128C3.85922 7.13005 2.88458 9.36904 2.80027 11.7275C2.71597 14.086 3.52826 16.3889 5.07363 18.1726C6.61899 19.9562 8.78269 21.0882 11.1291 21.3407C13.4756 21.5932 15.8306 20.9474 17.72 19.5333L18.9067 20.72C18.5268 21.4662 18.3907 22.3127 18.5174 23.1404C18.6442 23.9681 19.0275 24.7351 19.6134 25.3333L22.44 28.16C23.19 28.9091 24.2067 29.3298 25.2667 29.3298C26.3267 29.3298 27.3434 28.9091 28.0934 28.16C28.4743 27.7875 28.7771 27.3426 28.9837 26.8514C29.1904 26.3603 29.2969 25.8328 29.2969 25.3C29.2969 24.7671 29.1904 24.2397 28.9837 23.7485C28.7771 23.2574 28.4743 22.8125 28.0934 22.44ZM16.7867 16.7867C15.8537 17.7173 14.6658 18.3506 13.373 18.6064C12.0803 18.8623 10.7407 18.7293 9.5235 18.2242C8.3063 17.7192 7.26611 16.8647 6.53431 15.7687C5.80251 14.6727 5.41195 13.3845 5.41195 12.0667C5.41195 10.7488 5.80251 9.46056 6.53431 8.3646C7.26611 7.26864 8.3063 6.41415 9.5235 5.90907C10.7407 5.40399 12.0803 5.27098 13.373 5.52685C14.6658 5.78272 15.8537 6.41599 16.7867 7.34665C17.4075 7.96593 17.9001 8.7016 18.2362 9.51153C18.5723 10.3215 18.7453 11.1898 18.7453 12.0667C18.7453 12.9435 18.5723 13.8118 18.2362 14.6218C17.9001 15.4317 17.4075 16.1674 16.7867 16.7867ZM26.2134 26.2133C26.0894 26.3383 25.9419 26.4375 25.7795 26.5052C25.617 26.5729 25.4427 26.6077 25.2667 26.6077C25.0907 26.6077 24.9164 26.5729 24.7539 26.5052C24.5914 26.4375 24.444 26.3383 24.32 26.2133L21.4934 23.3867C21.3684 23.2627 21.2692 23.1152 21.2015 22.9528C21.1338 22.7903 21.099 22.616 21.099 22.44C21.099 22.264 21.1338 22.0897 21.2015 21.9272C21.2692 21.7647 21.3684 21.6173 21.4934 21.4933C21.6173 21.3683 21.7648 21.2692 21.9273 21.2015C22.0897 21.1338 22.264 21.0989 22.44 21.0989C22.616 21.0989 22.7903 21.1338 22.9528 21.2015C23.1153 21.2692 23.2627 21.3683 23.3867 21.4933L26.2134 24.32C26.3383 24.4439 26.4375 24.5914 26.5052 24.7539C26.5729 24.9164 26.6078 25.0906 26.6078 25.2667C26.6078 25.4427 26.5729 25.6169 26.5052 25.7794C26.4375 25.9419 26.3383 26.0894 26.2134 26.2133Z" fill="black"/>
</g>
</svg>
